<mxfile host="app.diagrams.net" modified="2024-06-20T08:28:07.524Z" agent="Mozilla/5.0 (Windows NT 10.0; Win64; x64) AppleWebKit/537.36 (KHTML, like Gecko) Chrome/126.0.0.0 Safari/537.36 Edg/126.0.0.0" etag="s0VGPqi1S2RnoF6yXkje" version="24.5.5" type="github" pages="2">
  <diagram name="SBI Layout" id="2f_Tx3v_k3dfhy726evJ">
    <mxGraphModel dx="4292" dy="1963" grid="1" gridSize="10" guides="1" tooltips="1" connect="1" arrows="1" fold="1" page="1" pageScale="1" pageWidth="827" pageHeight="1169" math="0" shadow="0">
      <root>
        <mxCell id="0" />
        <mxCell id="1" parent="0" />
        <mxCell id="vkecRQ2V3aNr8U5r4s_Q-1" value="" style="rounded=0;whiteSpace=wrap;html=1;fontColor=#000000;labelBackgroundColor=default;" vertex="1" parent="1">
          <mxGeometry x="-50" y="220" width="120" height="760" as="geometry" />
        </mxCell>
        <mxCell id="vkecRQ2V3aNr8U5r4s_Q-2" value="" style="rounded=0;whiteSpace=wrap;html=1;fontColor=#000000;labelBackgroundColor=default;" vertex="1" parent="1">
          <mxGeometry x="777" y="340" width="120" height="600" as="geometry" />
        </mxCell>
        <mxCell id="vkecRQ2V3aNr8U5r4s_Q-3" value="" style="rounded=0;whiteSpace=wrap;html=1;fontColor=#000000;labelBackgroundColor=default;" vertex="1" parent="1">
          <mxGeometry x="777" y="300" width="120" height="160" as="geometry" />
        </mxCell>
        <mxCell id="vkecRQ2V3aNr8U5r4s_Q-4" value="&lt;div style=&quot;font-family: Consolas, &amp;quot;Courier New&amp;quot;, monospace; line-height: 16px; white-space: pre;&quot;&gt;&lt;span style=&quot;&quot;&gt;fw_size&lt;/span&gt;&lt;/div&gt;" style="rounded=0;whiteSpace=wrap;html=1;fontColor=#000000;labelBackgroundColor=default;" vertex="1" parent="1">
          <mxGeometry x="777" y="460" width="120" height="40" as="geometry" />
        </mxCell>
        <mxCell id="vkecRQ2V3aNr8U5r4s_Q-5" value="&lt;div style=&quot;font-family: Consolas, &amp;quot;Courier New&amp;quot;, monospace; line-height: 16px; white-space: pre;&quot;&gt;&lt;span style=&quot;&quot;&gt;fw_start&lt;/span&gt;&lt;/div&gt;" style="rounded=0;whiteSpace=wrap;html=1;fontColor=#000000;labelBackgroundColor=default;" vertex="1" parent="1">
          <mxGeometry x="777" y="420" width="120" height="40" as="geometry" />
        </mxCell>
        <mxCell id="vkecRQ2V3aNr8U5r4s_Q-6" value="&lt;div style=&quot;font-family: Consolas, &amp;quot;Courier New&amp;quot;, monospace; line-height: 16px; white-space: pre;&quot;&gt;&lt;span style=&quot;&quot;&gt;next_arg1&lt;/span&gt;&lt;/div&gt;" style="rounded=0;whiteSpace=wrap;html=1;fontColor=#000000;labelBackgroundColor=default;" vertex="1" parent="1">
          <mxGeometry x="777" y="500" width="120" height="40" as="geometry" />
        </mxCell>
        <mxCell id="vkecRQ2V3aNr8U5r4s_Q-7" value="&lt;div style=&quot;font-family: Consolas, &amp;quot;Courier New&amp;quot;, monospace; line-height: 16px; white-space: pre;&quot;&gt;&lt;span style=&quot;&quot;&gt;next_addr&lt;/span&gt;&lt;/div&gt;" style="rounded=0;whiteSpace=wrap;html=1;fontColor=#000000;labelBackgroundColor=default;" vertex="1" parent="1">
          <mxGeometry x="777" y="540" width="120" height="40" as="geometry" />
        </mxCell>
        <mxCell id="vkecRQ2V3aNr8U5r4s_Q-8" value="&lt;div style=&quot;font-family: Consolas, &amp;quot;Courier New&amp;quot;, monospace; line-height: 16px; white-space: pre;&quot;&gt;&lt;span style=&quot;&quot;&gt;next_mode&lt;/span&gt;&lt;/div&gt;" style="rounded=0;whiteSpace=wrap;html=1;fontColor=#000000;labelBackgroundColor=default;" vertex="1" parent="1">
          <mxGeometry x="777" y="580" width="120" height="40" as="geometry" />
        </mxCell>
        <mxCell id="vkecRQ2V3aNr8U5r4s_Q-9" value="&lt;div style=&quot;font-family: Consolas, &amp;quot;Courier New&amp;quot;, monospace; line-height: 16px; white-space: pre;&quot;&gt;&lt;span style=&quot;&quot;&gt;warmboot_addr&lt;/span&gt;&lt;/div&gt;" style="rounded=0;whiteSpace=wrap;html=1;fontColor=#000000;labelBackgroundColor=default;" vertex="1" parent="1">
          <mxGeometry x="777" y="620" width="120" height="40" as="geometry" />
        </mxCell>
        <mxCell id="vkecRQ2V3aNr8U5r4s_Q-10" value="&lt;div style=&quot;font-family: Consolas, &amp;quot;Courier New&amp;quot;, monospace; line-height: 16px; white-space: pre;&quot;&gt;&lt;span style=&quot;&quot;&gt;platform_addr&lt;/span&gt;&lt;/div&gt;" style="rounded=0;whiteSpace=wrap;html=1;fontColor=#000000;labelBackgroundColor=default;" vertex="1" parent="1">
          <mxGeometry x="777" y="660" width="120" height="40" as="geometry" />
        </mxCell>
        <mxCell id="vkecRQ2V3aNr8U5r4s_Q-11" value="&lt;div style=&quot;font-family: Consolas, &amp;quot;Courier New&amp;quot;, monospace; line-height: 16px; white-space: pre;&quot;&gt;&lt;span style=&quot;&quot;&gt;hartid_to_scratch&lt;/span&gt;&lt;/div&gt;" style="rounded=0;whiteSpace=wrap;html=1;fontColor=#000000;labelBackgroundColor=default;" vertex="1" parent="1">
          <mxGeometry x="777" y="700" width="120" height="40" as="geometry" />
        </mxCell>
        <mxCell id="vkecRQ2V3aNr8U5r4s_Q-12" value="&lt;div style=&quot;font-family: Consolas, &amp;quot;Courier New&amp;quot;, monospace; line-height: 16px; white-space: pre;&quot;&gt;&lt;span style=&quot;&quot;&gt;trap_exit&lt;/span&gt;&lt;/div&gt;" style="rounded=0;whiteSpace=wrap;html=1;fontColor=#000000;labelBackgroundColor=default;" vertex="1" parent="1">
          <mxGeometry x="777" y="740" width="120" height="40" as="geometry" />
        </mxCell>
        <mxCell id="vkecRQ2V3aNr8U5r4s_Q-13" value="&lt;div style=&quot;font-family: Consolas, &amp;quot;Courier New&amp;quot;, monospace; line-height: 16px; white-space: pre;&quot;&gt;&lt;span style=&quot;&quot;&gt;tmp0&lt;/span&gt;&lt;/div&gt;" style="rounded=0;whiteSpace=wrap;html=1;fontColor=#000000;labelBackgroundColor=default;" vertex="1" parent="1">
          <mxGeometry x="777" y="780" width="120" height="40" as="geometry" />
        </mxCell>
        <mxCell id="vkecRQ2V3aNr8U5r4s_Q-14" value="&lt;div style=&quot;font-family: Consolas, &amp;quot;Courier New&amp;quot;, monospace; line-height: 16px; white-space: pre;&quot;&gt;&lt;span style=&quot;&quot;&gt;extra space&lt;/span&gt;&lt;/div&gt;" style="rounded=0;whiteSpace=wrap;html=1;fontColor=#000000;labelBackgroundColor=default;" vertex="1" parent="1">
          <mxGeometry x="777" y="860" width="120" height="40" as="geometry" />
        </mxCell>
        <mxCell id="vkecRQ2V3aNr8U5r4s_Q-15" value="hart 0" style="rounded=0;whiteSpace=wrap;html=1;fontColor=#000000;labelBackgroundColor=default;" vertex="1" parent="1">
          <mxGeometry x="-50" y="620" width="120" height="40" as="geometry" />
        </mxCell>
        <mxCell id="vkecRQ2V3aNr8U5r4s_Q-16" value="hart 1" style="rounded=0;whiteSpace=wrap;html=1;fontColor=#000000;labelBackgroundColor=default;" vertex="1" parent="1">
          <mxGeometry x="-50" y="580" width="120" height="40" as="geometry" />
        </mxCell>
        <mxCell id="vkecRQ2V3aNr8U5r4s_Q-17" value="hart 2" style="rounded=0;whiteSpace=wrap;html=1;fontColor=#000000;labelBackgroundColor=default;" vertex="1" parent="1">
          <mxGeometry x="-50" y="540" width="120" height="40" as="geometry" />
        </mxCell>
        <mxCell id="vkecRQ2V3aNr8U5r4s_Q-18" value="hart 3" style="rounded=0;whiteSpace=wrap;html=1;fontColor=#000000;labelBackgroundColor=default;" vertex="1" parent="1">
          <mxGeometry x="-50" y="500" width="120" height="40" as="geometry" />
        </mxCell>
        <mxCell id="vkecRQ2V3aNr8U5r4s_Q-19" value="" style="endArrow=classic;html=1;rounded=0;exitX=1;exitY=1;exitDx=0;exitDy=0;entryX=0;entryY=0;entryDx=0;entryDy=0;fontColor=#000000;labelBackgroundColor=default;" edge="1" parent="1" source="vkecRQ2V3aNr8U5r4s_Q-16" target="vkecRQ2V3aNr8U5r4s_Q-3">
          <mxGeometry width="50" height="50" relative="1" as="geometry">
            <mxPoint x="330" y="610" as="sourcePoint" />
            <mxPoint x="380" y="560" as="targetPoint" />
          </mxGeometry>
        </mxCell>
        <mxCell id="vkecRQ2V3aNr8U5r4s_Q-21" value="SBI_SCRATCH_FW_START_OFFSET" style="rounded=0;whiteSpace=wrap;html=1;fontColor=#000000;labelBackgroundColor=default;" vertex="1" parent="1">
          <mxGeometry x="497" y="420" width="280" height="40" as="geometry" />
        </mxCell>
        <mxCell id="vkecRQ2V3aNr8U5r4s_Q-22" value="SBI_SCRATCH_FW_SIZE_OFFSET" style="rounded=0;whiteSpace=wrap;html=1;fontColor=#000000;labelBackgroundColor=default;" vertex="1" parent="1">
          <mxGeometry x="497" y="460" width="280" height="40" as="geometry" />
        </mxCell>
        <mxCell id="vkecRQ2V3aNr8U5r4s_Q-23" value="SBI_SCRATCH_NEXT_ARG1_OFFSET" style="rounded=0;whiteSpace=wrap;html=1;fontColor=#000000;labelBackgroundColor=default;" vertex="1" parent="1">
          <mxGeometry x="497" y="500" width="280" height="40" as="geometry" />
        </mxCell>
        <mxCell id="vkecRQ2V3aNr8U5r4s_Q-24" value="SBI_SCRATCH_NEXT_ADDR_OFFSET" style="rounded=0;whiteSpace=wrap;html=1;fontColor=#000000;labelBackgroundColor=default;" vertex="1" parent="1">
          <mxGeometry x="497" y="540" width="280" height="40" as="geometry" />
        </mxCell>
        <mxCell id="vkecRQ2V3aNr8U5r4s_Q-25" value="SBI_SCRATCH_NEXT_MODE_OFFSET" style="rounded=0;whiteSpace=wrap;html=1;fontColor=#000000;labelBackgroundColor=default;" vertex="1" parent="1">
          <mxGeometry x="497" y="580" width="280" height="40" as="geometry" />
        </mxCell>
        <mxCell id="vkecRQ2V3aNr8U5r4s_Q-26" value="SBI_SCRATCH_WARMBOOT_ADDR_OFFSET" style="rounded=0;whiteSpace=wrap;html=1;fontColor=#000000;labelBackgroundColor=default;" vertex="1" parent="1">
          <mxGeometry x="497" y="620" width="280" height="40" as="geometry" />
        </mxCell>
        <mxCell id="vkecRQ2V3aNr8U5r4s_Q-27" value="SBI_SCRATCH_PLATFORM_ADDR_OFFSET" style="rounded=0;whiteSpace=wrap;html=1;fontColor=#000000;labelBackgroundColor=default;" vertex="1" parent="1">
          <mxGeometry x="497" y="660" width="280" height="40" as="geometry" />
        </mxCell>
        <mxCell id="vkecRQ2V3aNr8U5r4s_Q-28" value="SBI_SCRATCH_HARTID_TO_SCRATCH_OFFSET" style="rounded=0;whiteSpace=wrap;html=1;fontColor=#000000;labelBackgroundColor=default;" vertex="1" parent="1">
          <mxGeometry x="497" y="700" width="280" height="40" as="geometry" />
        </mxCell>
        <mxCell id="vkecRQ2V3aNr8U5r4s_Q-29" value="SBI_SCRATCH_TRAP_EXIT_OFFSET" style="rounded=0;whiteSpace=wrap;html=1;fontColor=#000000;labelBackgroundColor=default;" vertex="1" parent="1">
          <mxGeometry x="497" y="740" width="280" height="40" as="geometry" />
        </mxCell>
        <mxCell id="vkecRQ2V3aNr8U5r4s_Q-30" value="SBI_SCRATCH_TMP0_OFFSET" style="rounded=0;whiteSpace=wrap;html=1;fontColor=#000000;labelBackgroundColor=default;" vertex="1" parent="1">
          <mxGeometry x="497" y="780" width="280" height="40" as="geometry" />
        </mxCell>
        <mxCell id="vkecRQ2V3aNr8U5r4s_Q-31" value="&lt;div style=&quot;font-family: Consolas, &amp;quot;Courier New&amp;quot;, monospace; line-height: 16px; white-space: pre;&quot;&gt;&lt;span style=&quot;&quot;&gt;&lt;font&gt;SBI_SCRATCH_OPTIONS_OFFSET&lt;/font&gt;&lt;/span&gt;&lt;/div&gt;" style="rounded=0;whiteSpace=wrap;html=1;fontColor=#000000;labelBackgroundColor=default;" vertex="1" parent="1">
          <mxGeometry x="497" y="820" width="280" height="40" as="geometry" />
        </mxCell>
        <mxCell id="vkecRQ2V3aNr8U5r4s_Q-32" value="&lt;div style=&quot;font-family: Consolas, &amp;quot;Courier New&amp;quot;, monospace; line-height: 16px; white-space: pre;&quot;&gt;&lt;font&gt;SBI_SCRATCH_EXTRA_SPACE_OFFSET&lt;/font&gt;&lt;/div&gt;" style="rounded=0;whiteSpace=wrap;html=1;fontColor=#000000;labelBackgroundColor=default;" vertex="1" parent="1">
          <mxGeometry x="497" y="860" width="280" height="40" as="geometry" />
        </mxCell>
        <mxCell id="vkecRQ2V3aNr8U5r4s_Q-33" value="&lt;div style=&quot;font-family: Consolas, &amp;quot;Courier New&amp;quot;, monospace; line-height: 16px; white-space: pre;&quot;&gt;&lt;div style=&quot;color: rgb(187, 187, 187); line-height: 16px;&quot;&gt;&lt;span style=&quot;color: #7f848e;&quot;&gt;options&lt;/span&gt;&lt;/div&gt;&lt;/div&gt;" style="rounded=0;whiteSpace=wrap;html=1;fontColor=#000000;labelBackgroundColor=default;" vertex="1" parent="1">
          <mxGeometry x="777" y="820" width="120" height="40" as="geometry" />
        </mxCell>
        <mxCell id="vkecRQ2V3aNr8U5r4s_Q-34" value="" style="endArrow=classic;html=1;rounded=0;" edge="1" parent="1">
          <mxGeometry width="50" height="50" relative="1" as="geometry">
            <mxPoint x="-250" y="460" as="sourcePoint" />
            <mxPoint x="-50" y="460" as="targetPoint" />
          </mxGeometry>
        </mxCell>
        <mxCell id="vkecRQ2V3aNr8U5r4s_Q-35" value="_fw_end" style="text;html=1;align=center;verticalAlign=middle;whiteSpace=wrap;rounded=0;" vertex="1" parent="1">
          <mxGeometry x="-250" y="430" width="60" height="30" as="geometry" />
        </mxCell>
        <mxCell id="vkecRQ2V3aNr8U5r4s_Q-36" value="" style="endArrow=classic;html=1;rounded=0;" edge="1" parent="1">
          <mxGeometry width="50" height="50" relative="1" as="geometry">
            <mxPoint x="-250" y="220" as="sourcePoint" />
            <mxPoint x="-50" y="220" as="targetPoint" />
          </mxGeometry>
        </mxCell>
        <mxCell id="vkecRQ2V3aNr8U5r4s_Q-37" value="_fw_start: 由FW_TEXT_START指定" style="text;html=1;align=center;verticalAlign=middle;whiteSpace=wrap;rounded=0;" vertex="1" parent="1">
          <mxGeometry x="-250" y="190" width="210" height="30" as="geometry" />
        </mxCell>
        <mxCell id="vkecRQ2V3aNr8U5r4s_Q-39" value="text" style="rounded=0;whiteSpace=wrap;html=1;" vertex="1" parent="1">
          <mxGeometry x="-50" y="220" width="120" height="60" as="geometry" />
        </mxCell>
        <mxCell id="vkecRQ2V3aNr8U5r4s_Q-40" value="rodata" style="rounded=0;whiteSpace=wrap;html=1;" vertex="1" parent="1">
          <mxGeometry x="-50" y="280" width="120" height="60" as="geometry" />
        </mxCell>
        <mxCell id="vkecRQ2V3aNr8U5r4s_Q-41" value="data" style="rounded=0;whiteSpace=wrap;html=1;" vertex="1" parent="1">
          <mxGeometry x="-50" y="340" width="120" height="60" as="geometry" />
        </mxCell>
        <mxCell id="vkecRQ2V3aNr8U5r4s_Q-42" value="bss" style="rounded=0;whiteSpace=wrap;html=1;" vertex="1" parent="1">
          <mxGeometry x="-50" y="400" width="120" height="60" as="geometry" />
        </mxCell>
        <mxCell id="vkecRQ2V3aNr8U5r4s_Q-43" value="1. 每一个段都是4KB起始和结尾都是4KB对齐" style="text;html=1;align=left;verticalAlign=middle;whiteSpace=wrap;rounded=0;strokeColor=default;fontSize=9;" vertex="1" parent="1">
          <mxGeometry x="-250" y="235" width="180" height="195" as="geometry" />
        </mxCell>
        <mxCell id="vkecRQ2V3aNr8U5r4s_Q-44" value="payload" style="rounded=0;whiteSpace=wrap;html=1;" vertex="1" parent="1">
          <mxGeometry x="-50" y="724.09" width="120" height="180" as="geometry" />
        </mxCell>
        <mxCell id="vkecRQ2V3aNr8U5r4s_Q-46" value="" style="endArrow=classic;html=1;rounded=0;" edge="1" parent="1">
          <mxGeometry width="50" height="50" relative="1" as="geometry">
            <mxPoint x="-250" y="723.26" as="sourcePoint" />
            <mxPoint x="-50" y="723.26" as="targetPoint" />
          </mxGeometry>
        </mxCell>
        <mxCell id="vkecRQ2V3aNr8U5r4s_Q-47" value="" style="endArrow=classic;html=1;rounded=0;" edge="1" parent="1">
          <mxGeometry width="50" height="50" relative="1" as="geometry">
            <mxPoint x="-250" y="904.09" as="sourcePoint" />
            <mxPoint x="-50" y="904.09" as="targetPoint" />
          </mxGeometry>
        </mxCell>
        <mxCell id="vkecRQ2V3aNr8U5r4s_Q-48" value="_payload_start" style="text;html=1;align=center;verticalAlign=middle;whiteSpace=wrap;rounded=0;" vertex="1" parent="1">
          <mxGeometry x="-250" y="694.09" width="120" height="30" as="geometry" />
        </mxCell>
        <mxCell id="vkecRQ2V3aNr8U5r4s_Q-49" value="_payload_end" style="text;html=1;align=center;verticalAlign=middle;whiteSpace=wrap;rounded=0;" vertex="1" parent="1">
          <mxGeometry x="-250" y="874.09" width="100" height="30" as="geometry" />
        </mxCell>
        <mxCell id="vkecRQ2V3aNr8U5r4s_Q-50" value="1. 仅在payload 模式下使用" style="text;html=1;align=left;verticalAlign=middle;whiteSpace=wrap;rounded=0;strokeColor=default;fontSize=10;" vertex="1" parent="1">
          <mxGeometry x="-250" y="744.09" width="180" height="130" as="geometry" />
        </mxCell>
        <mxCell id="vkecRQ2V3aNr8U5r4s_Q-51" value="" style="endArrow=classic;html=1;rounded=0;" edge="1" parent="1">
          <mxGeometry width="50" height="50" relative="1" as="geometry">
            <mxPoint x="110" y="220" as="sourcePoint" />
            <mxPoint x="110" y="990" as="targetPoint" />
          </mxGeometry>
        </mxCell>
        <mxCell id="vkecRQ2V3aNr8U5r4s_Q-52" value="地址增长方向" style="edgeLabel;html=1;align=center;verticalAlign=middle;resizable=0;points=[];" vertex="1" connectable="0" parent="vkecRQ2V3aNr8U5r4s_Q-51">
          <mxGeometry x="-0.3716" relative="1" as="geometry">
            <mxPoint x="10" y="340" as="offset" />
          </mxGeometry>
        </mxCell>
        <mxCell id="vkecRQ2V3aNr8U5r4s_Q-54" value="" style="shape=curlyBracket;whiteSpace=wrap;html=1;rounded=1;flipH=1;labelPosition=right;verticalLabelPosition=middle;align=left;verticalAlign=middle;" vertex="1" parent="1">
          <mxGeometry x="907" y="300" width="20" height="120" as="geometry" />
        </mxCell>
        <mxCell id="vkecRQ2V3aNr8U5r4s_Q-55" value="栈空间, 大小为PLATFORM_HART_STACK减去SBI_SCRATCH_SIZE -&amp;nbsp;" style="text;html=1;align=center;verticalAlign=middle;whiteSpace=wrap;rounded=0;strokeColor=default;" vertex="1" parent="1">
          <mxGeometry x="1007" y="310" width="183" height="100" as="geometry" />
        </mxCell>
        <mxCell id="vkecRQ2V3aNr8U5r4s_Q-56" value="" style="edgeStyle=orthogonalEdgeStyle;rounded=0;orthogonalLoop=1;jettySize=auto;html=1;" edge="1" parent="1" source="vkecRQ2V3aNr8U5r4s_Q-54" target="vkecRQ2V3aNr8U5r4s_Q-55">
          <mxGeometry relative="1" as="geometry" />
        </mxCell>
        <mxCell id="vkecRQ2V3aNr8U5r4s_Q-59" value="" style="edgeStyle=orthogonalEdgeStyle;rounded=0;orthogonalLoop=1;jettySize=auto;html=1;" edge="1" parent="1" source="vkecRQ2V3aNr8U5r4s_Q-57">
          <mxGeometry relative="1" as="geometry">
            <mxPoint x="1006.9999999999995" y="660.0000000000002" as="targetPoint" />
          </mxGeometry>
        </mxCell>
        <mxCell id="vkecRQ2V3aNr8U5r4s_Q-57" value="" style="shape=curlyBracket;whiteSpace=wrap;html=1;rounded=1;flipH=1;labelPosition=right;verticalLabelPosition=middle;align=left;verticalAlign=middle;" vertex="1" parent="1">
          <mxGeometry x="907" y="420" width="20" height="480" as="geometry" />
        </mxCell>
        <mxCell id="vkecRQ2V3aNr8U5r4s_Q-60" value="对应sbi_scratch,每个字段占用4或8字节" style="text;html=1;align=center;verticalAlign=middle;whiteSpace=wrap;rounded=0;strokeColor=default;" vertex="1" parent="1">
          <mxGeometry x="1007" y="600" width="183" height="110" as="geometry" />
        </mxCell>
        <mxCell id="vkecRQ2V3aNr8U5r4s_Q-65" value="" style="edgeStyle=orthogonalEdgeStyle;rounded=0;orthogonalLoop=1;jettySize=auto;html=1;" edge="1" parent="1" source="vkecRQ2V3aNr8U5r4s_Q-62">
          <mxGeometry relative="1" as="geometry">
            <mxPoint x="1250" y="619.9999999999998" as="targetPoint" />
          </mxGeometry>
        </mxCell>
        <mxCell id="vkecRQ2V3aNr8U5r4s_Q-62" value="" style="shape=curlyBracket;whiteSpace=wrap;html=1;rounded=1;flipH=1;labelPosition=right;verticalLabelPosition=middle;align=left;verticalAlign=middle;size=0.5;" vertex="1" parent="1">
          <mxGeometry x="1190" y="300" width="20" height="640" as="geometry" />
        </mxCell>
        <mxCell id="vkecRQ2V3aNr8U5r4s_Q-20" value="" style="endArrow=classic;html=1;rounded=0;exitX=1;exitY=1;exitDx=0;exitDy=0;entryX=0;entryY=1;entryDx=0;entryDy=0;fontColor=#000000;labelBackgroundColor=default;" edge="1" parent="1" source="vkecRQ2V3aNr8U5r4s_Q-15" target="vkecRQ2V3aNr8U5r4s_Q-2">
          <mxGeometry width="50" height="50" relative="1" as="geometry">
            <mxPoint x="240" y="760" as="sourcePoint" />
            <mxPoint x="290" y="710" as="targetPoint" />
          </mxGeometry>
        </mxCell>
        <mxCell id="vkecRQ2V3aNr8U5r4s_Q-66" value="一共8KB,&amp;nbsp;&lt;div style=&quot;font-size: 10px;&quot;&gt;由&lt;span style=&quot;font-family: Consolas, &amp;quot;Courier New&amp;quot;, monospace; white-space: pre; font-size: 10px;&quot;&gt;const&lt;/span&gt;&lt;span style=&quot;font-family: Consolas, &amp;quot;Courier New&amp;quot;, monospace; white-space: pre; font-size: 10px;&quot;&gt; &lt;/span&gt;&lt;span style=&quot;font-family: Consolas, &amp;quot;Courier New&amp;quot;, monospace; white-space: pre; font-size: 10px;&quot;&gt;struct&lt;/span&gt;&lt;span style=&quot;font-family: Consolas, &amp;quot;Courier New&amp;quot;, monospace; white-space: pre; font-size: 10px;&quot;&gt; sbi_platform指定&lt;/span&gt;&lt;/div&gt;" style="text;html=1;align=center;verticalAlign=middle;whiteSpace=wrap;rounded=0;strokeColor=default;labelBackgroundColor=none;fontSize=10;" vertex="1" parent="1">
          <mxGeometry x="1260" y="560" width="180" height="120" as="geometry" />
        </mxCell>
        <mxCell id="vkecRQ2V3aNr8U5r4s_Q-67" value="" style="endArrow=classic;html=1;rounded=0;entryX=0.892;entryY=0;entryDx=0;entryDy=0;entryPerimeter=0;" edge="1" parent="1" target="vkecRQ2V3aNr8U5r4s_Q-62">
          <mxGeometry width="50" height="50" relative="1" as="geometry">
            <mxPoint x="897" y="300" as="sourcePoint" />
            <mxPoint x="947" y="250" as="targetPoint" />
          </mxGeometry>
        </mxCell>
        <mxCell id="vkecRQ2V3aNr8U5r4s_Q-68" value="" style="endArrow=classic;html=1;rounded=0;entryX=0.892;entryY=0;entryDx=0;entryDy=0;entryPerimeter=0;" edge="1" parent="1">
          <mxGeometry width="50" height="50" relative="1" as="geometry">
            <mxPoint x="897" y="939.17" as="sourcePoint" />
            <mxPoint x="1192" y="939.17" as="targetPoint" />
          </mxGeometry>
        </mxCell>
        <mxCell id="vkecRQ2V3aNr8U5r4s_Q-69" value="" style="shape=image;verticalLabelPosition=bottom;labelBackgroundColor=default;verticalAlign=top;aspect=fixed;imageAspect=0;image=data:image/png,iVBORw0KGgoAAAANSUhEUgAAAeYAAACfCAYAAAAsyXpyAAAAAXNSR0IArs4c6QAAAARnQU1BAACxjwv8YQUAAAAJcEhZcwAADsMAAA7DAcdvqGQAAFAjSURBVHhe7Z0LfFXVne9/Q4C8H5zDIxBDIISnPBIFFGOggGA6xGphHGn8qK3TQuv1M3Odjsxtb3X6mOnM2E6n04/tFOfW1vEjxbmVuVbs0EnRAiII2qAgUQxECIGA5JB3wADe9V9r7XPW3ufs88pJOCT/7+ezP8le++y911p77f1f//X6/VHpzSs+AcMwDMMwScEw/ZdhGIZhmCSADTPT/yy+F9/7zr1YrncZhmEYd1Lyr5vyTf1/SFJzCzHWk4u0T3rQ3XtFhwpScjA6fyxys0egt7MHl3WwIgM54/Phyc5Fdsjjg4cF85/CX024gt+e+kCH9I01S5/DZ4dvwS6fDugnEhnvkjUP4eFZZ7Cjrk2HOCiai5VTgPpXD6JBB8XHIjz8nWrcvawcKxeMQsPuI4gum+i8Jch2uT/F/2vVS7GSrjv1CmreOqmPXF3MeE2/vBv7jusDEVi+bgNWZbr93sjDZfMwpnE/DvZzWUsU9/3F23jmywfx5RtHY+OraTqUYQYfYTzmEcj0FiL1QiN83TrIItWL8XnA+bNt6NVBAcgo5+Dy2UacPk1bCy7qI8wQZedzePSx57Bd78bPHjz52BN49JnD6NAhfWcRKkvbsI2uS9tTe3T41af+hZ/IOG1r1AEJoGRNGTwHNqu0PvYTbKrXB5KeNny2NAf/7wsrUPZ4rg5jmMFJVIO/yGvOvtSMc10OM0xe89gR6DCMb0pmPkahJfi3A8oq/I87qzE7U+31HNmEv3zz5TDh5Kk+hfyOVsyeViD3zWPkXT44TZ+EJvxu0wa84P06fnD79UjXoYouHPrtOvy4Re+GxB4HnP49vvLqv4kv5hP414Xq3gH0vfAlfL16KtqO5In4qRMb992L74qPKsXtc3jRSN+dwGtWHEKkt2FenPFWHtz60iy91ySMmTK2FF6NE/CVzkIRHWrcpQ3cRFRvWIuybAoM/D4Sy9c9hHEtbSgrVfnRIQzJt184If+XlFTh8dXApie2wm9XKOyBWZC3EljnkPdYWagDLfzxE4S6loQ8ywqVHsHxmifw5E76j8KL4TuQK+Kn8kIdU+FoLEBRYSdqD6j4B8XdAeVdpcg7j8g7GXczbhpKw8z3rPsTZr4KOg5jI8WfugxWBJchM9+Dr0XYr2fGOejZ6nsV0XXEtYsKKY2H1XErHvLMRNOGLT/qwX/+eT6e1SEMM1hJuGGm36ZeasPInFzhcwu6W3C6zely9y/UHFzeETCsFvZwZbRy31UGjo7dlvMunn7xu9gvjW4edhtG8X35fzB2wxgFZIALP1DGOAQUj+mNKk4BKA6fwmirskDxuxX4pYgrwhhmt3wgYo63Nkh1IYyrMtjkddIx9ZH37DU//u7nhkIa0zzrI0/nlsH3jOHduRpTC4pDFbDFOifU/SksYHgVwqDK+zjTYMZBnUdepzRe/ri0oFKH7/auVfHfm4v1M46F9cIj552bMQ2gjOdWvzEN9Xt1H6tSpdGVAPp9eYtljO1xsMcvcO26GfoZURpX5Ip8q4XngQjPOFRltku/c3rXlVuasXMt8G9smJkhQIIHf43A8OFAZhpwXjZjN6N9uBc5qfrwgPAlTB/fhN1BBmcV8nO6cLTBCn8Z+5q6MDpvld4X36l39Qei5SOckyHEKbR1FeC26qfwP7w6qC+cb0XP+E/hX+/8OhbooOgw0tTyXfxlxI+ZWz7ESxN8HQXC+AgjUKKDDDoO7NIf5BPYd7QTnjET5V68HN9rGd09qGvMgmeC3AkDGcwN+J7cDG/SFaNZnDw9W9NuATzZTajzGzZnHES+Wl5wvTCI/gpCIDwQ/8jEk3dkIFVaNwQb3BCYzeLk4Qea7SdiXF4n6t/W6QkRh0D8gO1PBQy+P42NtYFKUzio3G66F18xtyiM8t98uwa1bJSZIUSCDXMvLl0SleDOdj3YqxcXLvRi5HDpO1+jvIwfv0gfkReBW5/Dv/bVQFsfp9eAz1WL68VsoK8WJ4RXSB/0rcBqMgihDTRR5M2C7yPrQ99XyHDof8OwfJ3wfskDlAZ2M2oT1wk9oFDeRWTxvagspCZqZWA3HujUB5Ic8pipzJtbFOX/W4+vQNlmUdX8UTPu02EMM5hJ+HSpS5d6hcecofdGIC1tBD4WYQOH8nDL5wc8YcXLaG7PxJTJVviXsGJaJs61RutRKgP9u9OZyB2lgzTp2RHduWCkgf49GjPzhOmxY3rx0WDdf8H8OwN91675ECCueGsDvc3Vi12EmYWd8J3Su32lZC5KbN6rOx0tTeqfxRUhPOZcjHOpSASjWgdmLta7JVUoT2SaXFF5F/Bew9DRBjXomgavBRvz6FssTuBMaxZK5lm/V9dLXMXKIE6PWfJ6utGKxTCDm7DTpaypUunC4U1JzUJ2dgY+6elE7zA9VSozDSnC+KbTtKiUS+i82ItPesXxtHx5XnZ2FoZ1NeN8jzHNqt/5APvf9+LGT92B6jlrUCW25akX5bSgug/N8EkYeWQTvnFITReaNXkNRrdb05RuRMUcL1oO1qCOavmf/TLu0tcqHvYuXtizS5g9xalT+Zh3y6f0NSsx6dRL2N+jD4aA+nYf+9RaeS0Vh634oTFlqa5jBm6/abm+381IoziY8dG/szDvX/bxBzg0TLiXJygO7vngPC+aeMu+1EfuQpWcZlOOkmGH8fwmNV3JM2sBbim9QU03WlaEtpof4me1dBI1L9PUnCLkIQcldDyKaU7FN5Zjfpm6z8rSdBx+5mn8mk6w4lA6BqmpYzCfjuvpTQ1to7CkcqmK38iTqB2WKzLTmgp0Ej7PAlSJ40FTojzTsGQmcNAWpzYcPDMKlat1esX9mv1pKsTCZaNwLmjqVSAcIv5jzu3GPszFytHnw06/cs871Vz90F0ir0VS8qbQcT29qbYNY8pFWispbDgaDgyDB0f809VsebFsEq4YcaW8lXEzplI1vHUFc6pX6SlURUg5sBnf26auRfGbY1zbwn8dfxrhki+J4iLu+fQlvPdfWXhHhzDMYIWX5GSSjlCDlwYrzoFbjBtt2PJzH97+wmR8S4cwzGCFDTMz4IQcISxRo6LPLGPDzARDC4z8ZelZoHEhz2VmBjVsmBmGYRgmieC1shmGYRgmiWDDzDAMwzBJBBtmhmEYhkki2DAzDMMwTBLBhnnIQmsib8Dja6JdiGKgUUtsPmwt8sEwDDNEiDgqmxYZ8WQAve0OEQspYEFCFd3w+UUsSCoyHzkj5Y6fLl8j2ln7cYAhwxZOVECJFZQcDa9+dPVQYhHwqzoNVtRzCKXsRPO5TWWswDGVN6YAR0DhSi9NqoUzbHPCHepTlmKWc/pauDj4laz0rhN5LW+tXbiD7ntzmzjvHSw00kpY93LGIaDmRTjSa6WPFpwxFMWIwHn2c/zhOg/sv4teYIVhBoIwK3+RkS3AiO5GdH6Si9Qrneju1St4kR5zzhW0tFzEyMwUfNzZo9fGvoLennZ0dlpbDz5JTcUn3Z3o5UlZA4zbClUWbTi4e3fQik7Jw0nse9VN7H/wsHzdelRcEIbm+8+j5lW1AtfCyyrdtLrWiH1P4O9+sRs1jbSa1wIU0MpfPnq2w7H3sZ9io8ijGn8+UbgXKcMyMHy3eu7+FbpGkApWGl4NOket7jW9eQu+8ePf6DgsQYm8D60KRr+9guniug3P/BA/eCn8qm2+3nFYtHg8hhvlbvntn8a4pu34zzpgTvkkNG8W13lBxcEqf7Y4XJ6Eu1fM1SuWUcVlFdJ36nyguFsrqfmOYIfYb/DMw/zeN2QeqjSpcwrqNqvribyrXH2byrvsuVg5dhhSsoZjh7xOpPeEYQaeME3ZvehqcfF0L7bgdIslVBGG1BzkXGpHV8QfDkKoZu5XO7oXy3UweQYPrxEfSevYukX6CKGal63z/M245BmsqzKOBa7nPMd+PWCcuJ86ZohOGHGLtimbPCfbbylOG6qgLukSbxku7rsm1P3c4015ZIU7m7LNY9/z35/i53afZIbWxm7CNr93uQdP1jShaIb9GUrq30F9RzQqW23YvRco71P623AmWmksJzKexjrjMo1Rrv9tsfMYjse0trkDWl8dh7HJagmq34pNB0SwtR54ay12o8xVhIVhrjb92McsPO6sEWjvHFgt5qSAjNYK+NV/Hq0BKg0jUlSai92WClJehd/4LF+ndHCVQtIuYIVhTAtn+Y9taywIfHhJsKHVUlUSm9mEiAJxz60qvKYNZat1HHY+J8NiUSXa/sphYAp98BTyI3dUfITF/2HjjSyUeY/5j/lKK1SlIky8TYlCG6JCsX7KCS3RKOJ/dCLW+w26uM+UNnXsGRFX6z4DBmlhO5STIimRlXjh8YtRaE61oSPP689nP0FiHiTBqSsoYrNVYIRh8xnPSiKM025RbuQ5jsobkV26Vl+Lug/60qyrZCP9lYvFxSjqEGF+Qy+e0wOBeIesQNnOOYFNe0VlZQX93qyQhmFCLrJbW2zN7fUftSHbG2jG3/5emyHcwTDJRf8ZZvKW0Y0LQ9Fbpg9D47HAx408gOxcf39XaP1d8iyE0ZYfIPWBtIn4dxzGNv1RPt5iGFT6kBdW2LzHAIZusCMOMUOekPByF8qbiL9TRJD0giLEm5bZfMXwCK2+vLDxDk3JmFx06MoAQfc3jZhfH7i+JWxza/9gyYOa2zr8uEUfjhN/vj4wEfXPmAYzIPtIW6A/ltiDbaLSUulobSAtZVnhgch3cU3TmFNfr7qWs2IVO/K5FBZLI+p8ZmrZ1UC8zfEN/soBVWrNfmxdkZQVXDoeomIRMzt3oX7KQFfeGCY6+skwk7ecYegyM27Y9XftH9uAcH8YSKiffrsFqKaPlpuhC+WdxQR5Lm3KyyDvrdUUx+/HeF8zxOExUwXCWVlyeHs0SCnqPDUg4+gJ1SQukAaamsxvDpXne1DnKukZJbI5m5qizQpcZFTlgLS0hWcfyvhKA70LxwsjNEOHaHWQFQRLFlRCleJco8mdYZKH/jHM0ltuQ9eQGIlNozodtXjpDSqPgShZU4aikEbR7H+jD6LRRB0r0tCJj5aLV0wG1dm8FzO6iXS5uJbvvYAX3J/xNpHNkUYT7fJls/qepoQRj8fszDtRlmjEsD9v+wA1XaMYM/WuEzJUoVFlsm/a02T0xD2WVYhnZTZjR4Nquoab8aUKpv7XFdm6MyvQYlBShepSEeyoINS/UAvMKNZ7FiHeZ4YZYMJOl7KmSgXoRfvZZnQJs6umShl0t+B0G/UnqylTKZ1DZYqUnpZhTFEh7NM/yKNUzZAxTQuxpqZQn/VqYJNu3qNrWIpEzuu5Tqkxprk4zyHs8XBHTZ8JpEfhdi8a4FUFbAn29tzjbd1D/qtRqlN0DdsxI00UHlCkovhcK1Ng7HlnPgd7mkwc+S1Q5znSbU4Ngvo/QHRlMuhZGHkeFiqzD8wCjOeqBvy5T5cyVbbovuUtdKzAJa3iH32PkNOlbMcC5UfmyYxj/ndVpc8szzqOiDKdDNMPsLrUAOP8ADEMk1xIYw17RZthBhI2zANMMhvmIO/Ij9NDZoY0ITxVC7Pl45rDSpej9YthBho2zAzDMAyTRPTjPGaGYRiGYWKFDTPDMAzDJBFsmBmGYRgmiWDDzDAMwzBJBBtm5pqDRrZf+yuFMUx4br3uH/Dz6+brPSYaBkueJViPmchAzngvMvVeYOERRqIXfSBimlpCUzmMRUac2BaJGOTTPWRaScxiUCwAcQfyH74P460XpusQ6p78Ni6If/Pu+w9MNpbGbN3xp2jYK/6Z9Dhm3jMbaSpY4j/mypcx+a+XIU/viRvh9PNfQPOH4l+6XhXQoO8bhL4fDj2LupdfkkHOuEl03LHq55g52/8FsKUJN/8zypZYC500oeEfH0Gr+C/NcU4gPSreada9dVwuhEmvvJbnDdQ++1MdIqD7zj8v4lGLPDO/BRf0td3jQDjy79Qr6vphn4X9HH+4zgP776bjvM4LiedR/EdhO3709ka8poNIAOQbt9yIG+SiTxfwh9ffwN9G/LSm44mHZ6NMfhp6UPv8IWwgfcsx87Bl/BmsfqeZDgjy8f3bxuHQ797GL3RIzNA15+nUnn3fuHYYRCH6z3sKRMoEnU3Y+OQp/EoeAP6kajbWz04XxaQeK549r0OD4/n5uUsw+/QO/NVHtDcfX5t3H/Ia/wJ/PfAL5ieMMB4zreBViNQLjfA5Hz7pMYv8P3+2DYaplqTmejFSGPHTpxvF1oz24TnITNEHGf+C/LEoO0VmESpL2+Bfr3qQz8GU6lODZFWmvPvuw6iGZ1H7j3+qNodxpI+3DBcf1LQl/6w+8h9+G3UirO5QlzIQ4n83I2WHDKG6Xt0hYHzV4zaD4kba9ZOFIXwFFyaX+X/f+qx1nUAczLiTsZNhZjgZsSV5okJgnZuHyQ8H4uA/Z0cT8qy0El3iHh5lzNOuH4ULp8R+GC6824ALE6YblRCRz1MLcKGhVsePKiU6bhQPXdkgQseBKk/LAOtZ0GYZfddnoc6hCoX8vXx+P0f+JHmWTFPa1C/rHSd34h+neVF7xDTKZIBuxPTmt7D6dzuw+nUfpt8yD5/Xx9z46n2zMfXDQ1jxD/ux4nkfpt5Tgq/qYwklYyqenQf8muImtl9jOp4tDqwmF5pR+Nk9HnzwvIibiN/GDz1Yf98oeeSr9y3AvTiKjYd65H70vIm/P3IYY6c9ivt1yLVIGMMcnx7zpUu9GJGWDmmLU9KRPrIXl4acksUiPLyhCtXrNmjFpSjVegyd5ID6j9YtpoUPsmdhvT5m10Z2EaiwXc+QzKPwUPrO5JVvuFfEXYVVU5OxOO7URLZB5zjk+GihEv858ngMcZDQ0pJWuJlWIzyoKdt+TiDOcT6LZKTrvM1o9wVpvDJHRWGY70De5Fac39sk/K3JyLMMSxyQgcehLcpLF1x4eQtOh7rm3veF55iHNAqfNFbEsQHnxYc+j+LiOY/zwhNK896hfhuKD2txvqsAo27W+8IjHTWhC+ffDRjgiJhxiIdJZcLsHEKDZfSFAW8QlaFR1+t4t70h0n5TwFCbeKZhsm8P/t5mk/Ixe2wrth/TFfrMDGSK+M0eA1QU34QttwWMNHmQW26ZigoRg1kF5/HaVn2h/AzhmYqwflgGvCLfAxw7qr3YLFwnbHJm/ngRB/JwlwSMNBlwsf99EW8s8mJiU5Py4AVFo4R3XOCVFYd/enY/PmvFO1Z6NuJV33W4PuKi6slLwvuYL3cJb7lzBMaOL1Reta2ZewghjGhJi5bSM7WQw2HJ28mN5PfIWJ3ApifE/jOH0UHrFOvjqglcGyOb0daGhwxiGE1oFApjt0Ud23ggNyCkkC08k71K4afMWys9eyVL6QKJJTQ6hfEt3WARvwcs7eno40CiH54DlgyhKQ1IspEijPJChyio8kI6wvo+TulC41lsPACULesPgYI41KUErbvE13r2fSj7a8ObMshb8h/imNjumYzzW12amuOAjGTaKTI+ESAD00a/ewmt4gPqNywRSJNp0nG/T3mGaZ5MXGgxjeNLuNCWifR8vWtxszDCXQ1o1QYcbWfR/IG496oypPtq0doSKdYU1y7hJWuP1Hk9YdLG36PjJraZq0KkyXbOS2h+kzxo+r3hyYcjX1R6RLzN53VBxDtNe/5E6wetIfPz/tHXoeHci3pPk5GNcd3dwofUhnhqN/5wVh3adewN/POxNCwn4ycM3/KsU/jn1z/Arsnp8HR2ywo7NQvX3NiNWlNgK4FMyUrDmQ6qNJAhvhF5zaeg2jWa8Ve/ex9niqfIisPnSybgzNuq2flPvGnoPE85RM3tC3Dr+SbxtUsMx7pFNXL0nXrv2iPxg7+omVvUVHynG3H2QoYw0F6k6kNDizi0kG3epX3h/tAYhspvtPVi/RE0odEYkG2kpmG/8RPXUbrPpo5yeLa/12QXxrfuS/+bgv42EQWBSxykihRp80at8FMAT7ZVGSCc0oWBZ0HX7h/i1GPWTaG1zzdgFBkLo2mXCDRl0/EojYIrBZhsGaPJDagz+2BdkF6uT33NycuG0ZwdDltTdhT3IfzGfEmI/m7hwWL2ZPRE6fWazdlp3jyjGZtwb8p2jcPeR9Tvd4gsoOO6stEn9r6C85PNfv/ITBFG+ZGs41gtDO9JHUbsOvYu3s+/UXjKHrx/QBhlHU4UUV/tqCasePIUzuiw/oGMchFaXxeG19a9LIzz28BnhKf8Gbyv+4It0mQfuPetPnjIIXitu49C6FeZBBtmrcPsU14yec++7gxkZ9p0qIYe0UjVkde3WqnxWF5f/NrJA8zOXajNUzKXy2fk2g06DUST6dFbNH3DVsvBe8XKoF8TEnzxecx+pIF+FqcxG+P9TbAGsnm2D02rkkAfs7MvOzTUjJ0ZMFY0yCkz/ubsC74uRxP0HUjL7UKP/ogrYy7yoEtUIIIM309F3PVgNYHpeYbEn1+UBkTdjB0+DgJpoF9B6wSXZmiL5vO4kEvN8AFkBUFXchTk2ecZTe5h6O7AmYwJ+AwZZTmoSjUX22nFMe1FSxp64MsSFWMyynLwVDrGual99pGjnRdQPI+Msh6QJpva7XSdbdVetOJXLReQNbtEGuU/o08GefjqUJ+5NcOLru5+ah4YABJsmHtx6RIwcrhliEdg+HDg40vOIWKDCd2cHMZ4SC1k03sNg+8j5dlJDWf5n0E0XrdF1JrQicASnV+EmXmG/i556ZFE7cNBBppaAxyi98E0wddhNKeXVKG8z5rCsRKnx2yjAOnOr5kFNSlntuKCvzl2AND9pNKj11vDqRBNz1EiPe7ZAQ8xbdVqjIfZxEyoZmNYho+ahNWBGNFN7xXLRBqc94iEIw5OZL93BKhiYFayJj2OybODKwgXXn4DmDpd7yn+/dzJEM2wzTgkjO6x07oWM2YKbshoxSHtfaqBYUfxV/XmoLDzOCyScaJej2heVICyLBFGRrCrG11jx/n7pSuKi1B89owxIjvyd81kV7NPXNKHHXKgcBa+MTUPXc2nleeuB4Ztf+dt8Q00BoXtaRFfDh0fwVdvLUBWUwv+Se260InWbtW3LqGm+7GBfLAozkjH2e439Z5FbGm6moQ1zDRVavx4NV1qRE6++D9fjbCmqVLUhyynS2XAQ//nKuHmi20t+Fj+ls7NR/qF5iGiy+wk0IQrp/bokdJyDi6FlWap5lrxvxqopATii1aoc6rFvs2I6r5c65q2wV+hEL/fdCA3EAcatd2PI5lJhN6zogKeoyRSb7EHT1L/+gMqDlHFW0CDx6zfU/+5b6+Ot9XUb/apy5dM5N2Ww+L+xjk1wRrQyQeN3FVNy2pTo3jNEda2Pubn9XQaGt0swuTUngnL5PHJ0Xhd4cicLa9pxYWuJ/uhHf2krR80BfpuY0UOgMqzN6eH8tyFV0oVgGj7s92QFYEJwrO2NWMTUfQx2+JA05kCv6eWgws7jKlmdI2gZyGM+1YaiW2dQ88v4PEH+KkwTQX25mzfETR4FuFr6Xpf84t33gfmLcGW28Q2Lw1/eF1NGaI+589kncJTNDCs+wPxNw2f0YPB/ulZ8RIsWYCa/yW2JWmofb5eGT7/79T1Him+gF/bpjdRZVf8iVgp1tD1mj14RF7vRtzQ+T7ukwPV8vH9W6hfWcWV0nCm+EZtnM/jz3YAlRQ3sVXmNmGjnhYl+8RFmJwuVVAi//+ZtKed+NsDpzDOygfj2n7S12Op5yTeDZouFWOariKsLtUvUM3sWhHqZxgm6Qg5j3lguTZ1qcPPY75W0sSGuV8YZIaZPFXyUvWuyTWtvzvICLnohySwkMegIcTCHhbUT2wO6LpWoVWs/gy/whdOOptk+xnrfb8GFypyzbNrLE1smBmGYRgmiUj8dCmGYRiGYeKGDTPDMAzDJBFsmBmGYRgmiWDDzDAMwzBJBBtmhmEiUIzKpz+HyrV6d1AzCov+5XO4+8+VyhHDXA36QY+Z5CLzkTNS7XX5XBSqGIYRkNG7CfjvX+LYzM/hVryBp//mmD98QqO1D0z71udQXPdLbNssd2OEDE4lZso5b2fw2oOv4IgMj4ZAHKO5t/fPP4M7S40lzDo+wIt/8SbiXb3YvN6pKOMQHkrPJBwLmQcqn647ug3/90eWBnA/sHYZHlw5Tu9Emy7zGQqMfKWyIctO3SRxXcT4fJlkI4zHHK8es1rtS+kxiyLjGaoiFgwTLV1oCzkVvAsdeZMwTe/1jfPY8xe/xNMPvoHYVyo9hm0PxmYQOw5sE/ei+4mtD0aZaPnRr+V1XmvUAf2Kyqd+Ncq3zMfd0njq/BFb1Ea5VRhf6zxHvna09GOcmQElJf+6Kd/U/zu4gt6edly8DAxPy0XqlU50915Rhy73oLPnIj4ZloqMzBR83NmjtZlHIC0rFZc629Er/XBhtlNGC8OsrjN0WISHN5Si5Pq7cP9d5Vi5bB7GNO7HQVqJhia6P3IXqpZReDkWeRqxo65NhX9xAeaUfxp3V07CGE8F7q9eiumXd2Mfrc1J+sVf/LQ8Z+WCUWjYfQQhFrZhrjlGoeTOsbj4h/dxclQxCnrex+E3aAFJCs/AezuAectaZZh36RyMOncI9Tniw/5XE3Bm2ymQHg95lFU3ndXnqf3Prb8BZXfOQdmyNJzQv1PQdfNw/sUG20edPK477xe/F+eUFDWFvNa4dHHvQzI4LBk3TcdknPBfw0Je6497Uft7y4CQ51qGYRQXMlbfWoKbKc6OOFj402/Fgc5xywfySP/yZpUHRtxVOq9DNrIwUR8ru6Fbxck4J/j+FNdKLHZcT8bhixOQ+9klWPmndGwsuhx5G0ThBFx/QyrOhPwdGeDP6msZ8bhlNhYtuoT9j/wh5LUpb/J76nG4LhMlUy/isO2ZM9ca/dDHPAIpw/W/KTnIVktoDz3cNIDrt+LbfrWlzaifUmXoBrtoIZPRvrnNr8W88ehErL8mFJeGEvGqS5E3+mvseV15hkGe2uYP0TFlCqIVqSLjcueUU3jRxasKBRm0eS2Wh7sNJ6dU+vuT4/VWs0sr8eDTn1Pbv8yX8W/50SGcKjRaANZOwoTGD1WT6+tv4v9acZZxqMCiW+Sv4mPzK/patL0BUaOV9z3yN2qfBBD9HqvuKrDOefGAqYFEkLFUTfmB630mEL/Cqcjdo4691jgO8yL1T4u0vi1+dyvlzbeKdaBi2rdUM7q6j/EsJopvqZVXIaB0ybJD+djHFgrm6pNgw9yLrtY2jPQo8Qtq7u5xNoMPGdw0gLXCidzWosxc59JFC1mqU1miDWIjAQwm2UiEulQojmH/0QlYEOXAq2kzx+HUnlg+zKMwbUqmYUiNPsw+ELop+xiOCYNUrNMi41qnjaL0SLUhT0QcyJP1X+8mhFypNGpGITf7DI75m5spHZnItfRYOj7Afn2spcVp1EOjKgjCkOMmGUdVERoFb14XTr5pVc7O48jRLmSPFeFj+Z0fSiTeY77cjnOyf1lsLT3A8F5cvqSPMVi+rgJFfo1i8o71gQjQmtTqHL1dY2vYDn76qMcchpY3TyF7pt2zSixdqPs/2ojqre8DrEJz5Lcf6LQUozgvYNCmfUsPdJP334a6KN+L0AgP956pgL9yEE+/+sAgDfR/n8GERapVwY2Ws51Anif6lhPmmqZfp0ulZHqRc6kdXYO6fzl2jc+OFi3gvbjC7jG7QJKKKK3wayszyUh/ecwCavrEJGHKDLJz1EdaeIbLjBHQ5LFF+sjbIa8MmHl7fxp+g9eP4iQNaFs7CdlHj9o8e//gpbVl0XvMLvlAdJxV1/P++ewQHnMWvFE3lZ9HW0fA06d7zSt0G7AXOwFv+DxaWjNx3XyrKbwYC0SaZDo2f4hT2VOxLJ5pXNQVJr5R0UiuMslBmMFfaqrUWE8u0keIH6ZmITs7A5/0dKJ3WA5G549FbmYaUjAC6dm5yE65hM6LvWrE9tjR4re5yLzcitNtg70tuxALlxUhr/0Eat46aYSNwrlXD6KBdovmYuXo8/J4Q9soLKlcqgZ/jTyJ2mG5QN1+HMQ0LJkJHNx9BgXl02RYU/4CzMER7Ngt/vdUYG31UjX4S2z+QWHMIMU+SKslfzIW35CFjqOHUP9fp3DphptxKw3WuuESjh34I+TowVY9b7yPrkVLsFIP5AoM/rIGLxkDn/SxljfOIu2zn/IPODIHMFmDwiaKYpo9hY4VI+2j93EyTJ8zDf6aWzpLXytwHzUYScRx2hysLB+JY1vf9l+n5eM0XP/HN6nBXyNPo26YsMzvqvu4xuF1t3w4L4z/WCxeqQZyFTQfF/mXagx4O4/zRdNx6x/rAXJ68Jc10G1G/kik5pfIY2qQ1wWcbE9D2d1LVPxu8KLlv1/A7/9LXIoGcs0GGnT63Aa+2XAMTJuRfx6vfWU36OvR8vtuTFz/KT3I7Drp9f/6Z3St86h/0TwmtqCBfS74vJgjvlFje9U3iEl+WF2KYRhmUDMR1RvWouQoS7ReK/RrUzbDMAxzFaFplt9ho3ytwR4zwzAMwyQR7DEzDMMwTBLBhplhGIZhkgg2zAzDMAyTRLBhZhiGYZgkgg0zwzAMwyQRcesxp2TmY2zOCLXT3WJbSMQ6hxjaesy0KlgFiuT/nah95ifYVC93YodW71kNbHpiK+K9BJOMqDmm/hXgOg5jo37Gy9dtQGWhCiaO1zyBJ2ktdSoLD8yCuTiW/5grZlkkjPIYqWzp++FAYMqNM24SHXeseci+nruRJjl9Z0WBDKb15Lc99hy2i/9KHOcE0qPi7bHurePiC5teZ1oD9wnKbwEtdyuvbYsbYZ5nxRG295jCqrE1MBXJzEu63oxjQcvnOtOqsN8rmDDxDkqvozyEeH7ucdiFcRuqgC2h0lhgv4/5XMPGwXGMliTmJYXDEmblL9JjLsCI7kZ0fuKQfUQGsnMuo/XsR2jvvIRhpLncq6QdyWCPHtaK0+da0CmOpY71YjitFjYEJ2WVrPkMFjZvwTd+/BvUvKplH+PFY60MxnKPg4nl69ajtGmzLiO7UWM83+IbyzFi3xP4u1+I8MZRqFy9AMNpNTnfEewQv23wzMP83jfw6Pefj2IVOFqNbjj2PvZTbJTnLkBV+TglHxqhbJUsvQ0FB99Az9zJ8OnfNLwl4uSIgxV3z6wFmO4v90aapNEah8PP/BA/eIHOrcDaO1QcYJ5zeRLuXjEXV+TKeSLeC7xIH9aFHW+dFHFZgILeYcC5/WHSbE9rzeW5eOiL1vVyMad8Epo3qzhQ/KTsKkEr9I18W6WFzrNW7pNMRKWI69s7L6K0uM1/DqVVrs5nXcPMS2PFPxNf3X51fZHOlWNPYuPf/hzP2+4VijDxdqZXbGbehHp+7nGg+6iVB63vVSCNOcZ9GjGmfCmW5GvZWtc4UIViFdJ36nJMx3j1sYiEacruRVeLm7fbjfaWdq3B3I2Lfmd5BNLSIIy1DkgZjpG0ZGea9qyHGEXeLPg+0jVpA/I2lLqUY/1auRhA4NjDiymQCrbYJw/JUJiyzqPabOAa9FtRu5Uykvr/NYFrmvdyjYOs3bodY64qHW1I1CqstP56R3auzcMJzUQsnNKGup1N4oMu/rckSuOAVNJwYKvfE6t/YStqQ11z5zGRzlyMo/ASLzw4IbyyYiyn33pFXFqEsSA51GjZuUtKqc6U71OclMxFSesxbD8ljNAU8b8OTn4S9/zsnMC+o53IFs4bk3gS0MecgdQMS0FqBFJG9uISWWy5ZvYI9LQHmr+HCmQsyahRU1/RCm3ktMgFHSvXOs1Kj3mtNsCCnc8ZClK7gBX3io/RCWx6Quw/cxgd1HSkj/ubzsKShTLvMf/1fFoII1wcStaUyWZDKx7R3YeJV11q+yuHgdK1ooxYFSo7/vLzwETUb3Fpao4DKSXaKAyN3nfFMkjyQ6zOi4ZsmSZ72Q+uqJ7AmdYseJwKE4uLUdQh7mcltrUFm94DZq6ZC0/LO9huk1GNBrqPaczFe/GAjpvYbJXPwopAvDdU+Q0wpdv33h5Rm3hHPINEGrhYsMfb/92QFKDSird5LM7nFxky+Fk4TnniJ1QcxPdrb5Mux/Q9Y6Khj4aZmru9GNneYleQIqOc1Yuzp1sQZin3QUv9Cz+RRm1bo+pnkUZO9qmowhz4aDn0mKmpz1+w7f018WHqOu/Bk7IPK3wcSDtaHotBLYsh4lSXqt+Kb1P5eOYESuijaxgDwl9+5PG+ftgCH871U05gYxT9fPJDrtXQpMpZlN6iTaY0yv5Ef5lcAWxz9ncLLxqlwjhSHPoM9a/ruInNVvn0S7KKzR8HemcAn9SOTLSBiwV7vO197NQ/HHws3ufnjlWG1DKf0cTB73DUQJ3L35aI9MEwk1HOR86lFmNQmPCcP86Ah4yybuoePnxoNmO7Y3+5AgV4IqpXqwEaKnxXwpotg3GLg8B6id4rVh9JfomipI96zNJAb0YtZqHS5glpyFPr0M27cWN8OJ2GLySOSpzsThFhccbheEunowl6IsbldWqDZxlz0igXH/+gckcVy8CApNiaUOk+wrCG6FaKCvI6swPeKg2ayr4mmrMT+/wUugzVNInrVoVs5XFFflvEd62wLLbzhiBxG+bUXGWU7bKOvbhwoRe9F3pU/3NKDrIzetEjwgYvuk82KgOmattly9x/a308qEk5yGN26RO0PlIla6rsHnhIIsdBQi8RNZ/nea+BD1AykAg95gJ43J6fNA5tOBPZmiYOuicC3Se0bWsM0fQcJU5dcVleqTza0qSaPmF9vCfk2kafx4O6z2Fss3l30SO9TrMFgIyLfhdlC5NhpJcvE5Xro9TcnQTE9fxU90KgRWARKkv1szOR/faishLpO+JEjhmwo7r+QnflDFXi02Me6VVTpUZkSN1luaUCPT0Xcbn3Iv4oJx+j80RYZhouiOpw56DuZqbRiE49ZgWNqh1zzj5C0ld3BmOWr8L9lUpXeeWySXq0aBsOptBo1E8rveXmejTnpwU0nX1HMHzqp1F5lzpvkUeNhvTVDcf0uypwtwib31sf0Hf2BY+utHCPgxoU9pC+x8rSMWje+XNs6z/XfYhDA/TWG8+hCCnCAHxvm+pDpfIzv8x6Fuk4/MzT+DU9S+ryeOQu3JI/Esgtkscj63NTOTU0wk1oJPHCWbhFxkFtdD1f8W24ZdgxPG+U64ZMUUZnZPnLOo3YnZ/RbCv7QSOVLUQZNnXF52fW+6fb2M45fhBXpi5FaY4o490ifc6RzS6jnQNQWmdjvk6LeR81uvkGlC0MpNV6l0Jfl0Zj3wAc+Y2RvyeRLd7FmZkiz3eKuF5/F9bqd6Zk2GH84v/sV6PQ6Xpls/33WblsHsY0Gu8jHb/uIt6yRq2Hxf19dqaXtmifX6g4NLx1BXOqV8lviiqTW/DkbnqWZhkS36szo7Bo8Xg1U8AlDvuOk+NSra8lNvqm1PwQP6tV9yJ8Y6Zh5ZTR+PijSGV46MDqUgzDMMzVQ86znoj6vqzzMMhgw8wwg4SQi35IqF8w3OIV1yB60YxQzdyBhTeuLahJN3jRD4LGhAxOo6XK7OBNX7ywYWYYhmGYJCIB85gZhmEYhkkUbJgZhmEYJolgw8wwDMMwSQQbZoZhGIZJItgwMwzDMEwS0S96zP5jjvChA02qL0ZdIqeoSMm85NVjpmkPM99zrt/LhIcWGFkrV6WyFsCgKTMB7Vt7GbLnsYvGrYsGsP9exvwia1pR8DSdyNOrAvHU05Kc5VNPZzI1gIPi7NfzdYRropv25JIPjnC/NnBQ/tDvKJ9Jhzj0s9iEqjj0kxkmfsJ4zLQWdiFSLzTCF2RbM5CZ1o2zpxtx+nQLujK8yElVR8iQj0ILzg5BVSmGiZ1OdNCaxjEtR6iMjqkCFp1QhH2NdMvoKdEVWqPaEs3ou8GhJR19NbvgC1pT2lqvW60LXi2VnWgdbB3mj0M0ymZu+UCVECP8mcPwrIhmycfQz8ISpaH1oWVlQt6LjTLTf4QxzPHoMQMX2xptnvVQZpyoccvF4811YMmTkGFqMyXnqIb++Joq8bHRx6XSEH1kxP8ueszh0ecGneMWrryygJwcffi0ohHFe12VcZ4O1xrSNolLlneLifq9wmuNZc1hKYt4GJsiGq6rBYknRNIApjXb+6jn65YPeo1of3i98HoPqMpCJGJ+FgzTDySgj9nUY2YCFKDMWytr2hvFR8G/2Lsl8yc30kK2K7Rkl+aiTh/f1kpKQ/HrMS9fp6TZ1L0C59jDHZrQ4SicBc9eHbfGApSTQddqVDaJyyHpTfRBXerUO6jPK466MlMyJhcdcQklhNEhjoOAdKjYzFW4yDBG1AAm4+3U840N13wg4YvWFlu4FJuIphIQ47NgmP6gj4bZRY+ZETRhm25epI9CAPJCrY+jQ49Z0HFgl9+obX+qL322izCzsAm7gwy4ktoLqMUoz8Uux+eCqBhYCj0k4ceY9EVdihSVoCo6UVDkDbVsYzSEbsqOF5vmMlUcdbg0xK4awOH0fGMj/nwIR2zPgmH6gz4Y5lB6zEwklq+rQJFfjF31qTGDgT7qMe88JvtjnQOgQkGVoj41AfcryhN21wDWfczx6Pk6cM2HU21BcqXSu9aVhYjE8CwYpj+I2zCH1mMeimgPOCo9ZoX/A7G4Igr9ZAMXPebQNMHXoZubbYTSW82yichb3rOsRMj/oiMqr3vQ0lc95j3YdjQXM/2GXD2/mVYXQ0kVygubUCc8TPJCOworout+GGii1QCOV8/XwDUf6ql5m7qB9L7Iu2pLU5iMdmGgqVrqnjdSs7uJ81lEhsZm8NgKJlGENcw0wnr8eDVdakROvvg/H5kpdMArw5Dhlcfl5s0BHaKpUrQvp0vp49aIbQbY/sphwPImZrRF7zHXb8XuRqsZMJr+Qeqb3gWf0Q9onbP9KTNcjV61mhTN+JW3HEa08qi2dPEHKi7q326Dp9BqnhXPbwuNJlbPjjxPX43uu6dxCnKksT5Gm1kxFMbKH24ToA/dx0yDDq1uFTWAL/7nN0FU+Jz9u9vfa0LRDKcBVukzjWTMuOaDM+8MSUE5ECzX/x6tL23zdzmZ2J9FZFTXTi7G9aEFgGEsWF2KYRimr9DshBXguc1MQmDDfA0TvDCEBeubMn1HaeXqHRsDt7hGMsQhPNbCLckSH2YwwIaZYRiGYZKIBMxjZhiGYRgmUbBhZhiGYZgkgg0zwzAMwyQRbJgZhmEYJolgwzzYkSITyTqvWIlp9HXNZiYRXLvPQs7DloIvyYhagCgpF4NhkpaIhtlaZGR0ptZe1lgLicgtl1YbsVBykdaxobm4iKHKlChI3WnAPz4JSIdWn5JbXPHvh7wcxKjFQlR+96sx6IfyqNTVBrhiQOUzhlX7QmHmeVzXSkAcmMFFGMMcnx4zUnOQfqFZhItj4sRMjxe88NdVRKo/Xa35lcILu5kWXdDrgvv1dy1odbK+iykwASztYFL7io1r91nIND+xNQ61rUSwCJVTTuglSHfheNASoUprui9iHczQI6p5zOQ1Z19qdhWroONkwIO1mzOQMz4dF4XxDinrPGghL68YvgO5KJMLgBgLfpCnYUjkkUKP9TGkmne1+ED6SmepNapJ5vGJd7BQLmAgf+LHPC801sIH9L998QO6T6W4j0fcRx4mUQ3/soTmeYRxrlzdSIsGyLjRx5DSqpb1lPHR6fPVBH+MVPq2qt8Z1wpOS5g4DDLCPQtaXGPme1Y+qjJV588Hle/WWuYkuWnmt/1cja3shX6ukcuVhq61WhjF1lkokwuAuJQTQSBu9FyrgKNt4r0w7vf2XNs7oYhmkRwjD/zlUbF83UMY1+K4j5UuxzvozHNrQRP/OTI9uf740DOTS3mGKJNmvqvfqQWAnM8nXBwYJiX/uinf1P+7MjwtF6lXOtHde0WHmAjv2TMClzs60es08cJ79qT0oqPnIobWKiaFWLhsNmb0voFHv/88GjwLUHX9cNS8dRLwHcGOV3ejRm6NKLijCnPO7MdBH+CZtQC3lAJ7H/spNorjV66/C4syf4OfbRK/bRyFRVM+wi/+9ud4XhzbUWdKSYaiDQd30z2uYPqyUTj36kE06CN0n+XiPq/K+4jjd5WhpFHFYfm69Sht2oxv/Pg39nPpQ7Liov/+Dfm3YX0FpWkP9onfzakuRbb4XfGf3IWsfY6PkGQiKu+4ATjyG+yjBbiPH5R50OCZhzkQeWKkxzUO+nhyQupS38SDN65B1Rxrq8SkUy9hf4/+SQjCPYviG8sx5txulV+yTFn5QAZuFdJ3PoG/+4UqS+o3AeznEsKIPTIef9Blq+byXDx0TxEadh+BL8yzcMUzDUsWzoKnQT2nK1M/jfJJjepcfT21XcHCLy6RZaMBuZhTfgPKhr0t3ws6JsvNCy/gF/r+05u36Oeu8iA8J0XZE/egd2MmRHkXadFHim9ciooJJ7GRyqs4vqRyGobLOFA+zEDTMz/ED16gfJiElaPPy3eTDOmqHuv+9G6uxZIUkYc7RXouT8P9C7LE7wpRXZ0h3tFQFcVFWHWXF77XVNx9dftlHlyZGupZhI4DwxB9HPwVRo85JQejhcFub23H0JRqFh6ErgFfHT3m8ATuQypG8h+Bm4azqOCTOEH2LKzXcbcvBboHT9ZACgNUYlfIOC9fJ9LaGvqYHfc4JDfxq0uFfhZh0ApOljZ2VCwuFp5lQATF9GjjRnipm/RzsulzUyXOuo/h1SuEJ/yK5RlSM28oA5cYju/VHnR9i99gy3xorA3hiTvkKp3v5s7nsA0kDlIBWGIiNqiyRC1HWyMvhesaB4ZR9MEwh9FjJqM8Nhcf+5qDDfYQ51rWY6amPUvKT26OpreOxia/WL6JbB7MO4yNg7qpro96zAOBv9zprV/6ZYWBWj0L8JeVXVErlF19qPncyB+x2SuSnTjeaFRA/OiuF1HxjKobgGEiELdhdtdjzkCONMqh+pwHI9oDjmFU5cDoMceDXQPY1GOWWralFaFHR8tmbmD3U89ht/AqzJG1sg+VjHLURsA9DslNX/WYQxNSG5s8wGxDbzgadh7D8cIyQwKyf7H0vaXesfwvOrK9CfDkw2HTYxbvrr/l4AT2HYWrPrQaC1CLJ5+qBVaYUpr0bJRRjrqP2DUOFrF/U5jBRdg+ZhrUNdaTi/QR4oepWcjOzsAnPZ3oHelVessjMkRYrtpSgZ6eixgpDHauODQyXYeLLe2THpf+6cEA9f0VIa/9hNFHZPYHCorm+vuQGtqov2spqpaVY+XIk6gdlgvUBfqYXfv4fEcwfOqnUXmXOE+cu8ij+/NcoZe7GndT3JCDErrfglGyTxG2+1C/3zQdhzYcTJmEu1d8Wt5jxL5daJui0yHu3+SpwNrqpfIYbdMvU7+ZuM8j89FT81M8L1yjhreo33AVKil+vRV4uLIAqaljMF+fs3LZJFwR10sRH7qviWvNzx+J1PzZxvXCxEElbFBhf+bmsxB5aZSVcQ2H0ZyfpvPhJPY1jkLl6rtUOfLnnWqdeEiUkRJRrPKm0LF5GCP7rMU51E+6WuUrbVYZIqMT+lmoOIaE+piNft1AOk7Ynt/05noj3vb0OfHVDcf0uypEmTXjrQ+GgiqEj4g8KB0TKGNTr8j3zLV/3vYeDcfemg6U6HfTV3cGY5avwv2VKn+sstqw+F58rfwitn3/NyrvZT5WqPjNvhcPleWIR1ekzxGbfs/K3J5FvXscFMNQsmA2xqd1qTEAOpQZOrC6FMMwTJIhu3/AI7WHKmyYr2HM6Rh2WI+Z6Tvm1CE7Azd9LRniMKBY06h4+tSQhg0zwzAMwyQRfZwuxTAMwzBMImHDzDAMwzBJBBtmhmEYhkki2DAzDMMwTBLBhplJUtQiC6xjyzDMUCPiqGxaZMSTAfS229WlSI9ZLjJCdBsrgKV6MZ5O0HQNmRXATMiomEpACYCmUawGNiVoGUWaauVXeuojNKUlSMmoz1Ae0rrE/bdeeHKgl3O0VoAzVJKcU4X8CkXWlBoVLAlSLwpC5WdgFS6H4lm4sqXvR8tsWuUl5DQmHXc4p/GZyk825anAlCfn1L9AelS8o1EvC+BMqzm1ypHfAruKlLkKl31KloojbFMRg94jMy/pejOOBU17Cj3NMcL0r6BrBX9j1DOxX8f+nALPPK44EI48sp5TuPIgsypEGVKELv9UhgL5Gv23wJ6uQHqD4mfFLeiZC6ypahHKQ38SZuUvWgu7ACO6G9H5iVNdKgPZOZfRevYjtHdewjDSXO5tx0VaF/tyDzo729XWA2SPzsJl8c/QWjLbsfJXInCstNRXwq4yFiPBSkaJQCkHJfaayYddSWs3aoznS/k6Yp9WkJIrfS1QCklaoYzUmOZrBbPI+URlcrhfuUwqnpWPUytLRShbJUtvQ8HBN9AzdzJ8+jcNb4k4OeJgxZ3KVkAlykiTNFrjcFirKjXQSnJ3qDjQanT+cy7TymFz1apbFO8FXqQP68KOt06KuCxAQe8w4Nz+MGm2p1UqaX3Ruh6tPjYJzZu1spM47n8HaIW+kZbyFR0z319SRxuHt3deRGlxm/+coPfIzEtjxT8TS3VKqkqN1QpYkb4VQddyfmMWYdXyLuytG4eZYwJ5Y5Yh85nXxxMH+fzStBKayjvrPuHKAxGqDJlrjPvzXB8z83X5umqMCalY50AY0q/NPavTQvEJrByn4kdKdV40UPl7ScfBpoTWiDELRNn4zX+q88KWh/4lTFN2L7pa3LzdbrS3WKpR3bjoXC7bYvgIjPi4F5f07lBjnKi9KaUaY21dKtwyTG3OdaUfX1Mlaof6+IYqlMjCK/4nD8lQdzLPc4VqfNa1rDjo+1OtMqCkY8TPdo6zKZlqrm7HFJQG2/Vc0emyrmesC6yuEeIejryzH7dfb1A2gXe0JUwQgtY+74hq7XVSXWpD3c4m8SET/0d8ru6QQhkM9aX6F7aiNtQ1aV1vYUDHyfLqhQcnhNdFa0uL33pFXFrEh1uvIR4VO3eh1lh/PS5I0av1GLafEgZ4Cql7JRmLi+E5+g62f9SGohmh19iO/pknGpcyRHmaLbzQcAupiO+Rm2JdwllcgZKjUaiDDQAJ6GPOQGpGLy4b1peaucePL8T4IS37WIAyb61UqNl4wFgcv34rvu1Xr9mM+ilVNiOWXZqLOn18WysJFZzApifE/jOH0UHNL/qYvTkoFMJQ3Uzi7ta9dPObvv/GA52GWlSgaY7k7VQYbbuAFffqxfbJ8KnmJOt40MsiXiIlIG9czw0S8KCasnUv4+Wsf+EnMmxbow6wMPOO8qMx8MKSkIBnrz4m4x1N5SCRxKcutf2Vw4CsIIWOb9EKXdl4YCLqt7g0NceBlPFsFIZG77tiGSQt8iCNaxQEKn1i05WuIm+WX9xCcQJnWrPgmaB3LUgWsUPcz0psaws2vQfMXDMXnhZlfGKD7mMa8yyUPaDjJjZbJbewIhBvWTFWULp974kyWv+OeAZ9q6DEjRk3W1O9KP8zcpXQjBQrsQQy7ET9zN0Q79/uRi0dGovAhlsZmpAbIT5z8fDNbdGr0lEFDMp5icpxsSGcDnEvS8bUjy3PrW9h/9NHwxxaj/lyVzNOn27E6bPdSB+bj8wUfWBIEagJXh09ZvXRow9QTN6jzSs1Xv4IGsDSgKxA9H0wUmFHFHrj4xc9Ig+pH8//wpKGs2HEHB+tgSFOdSmrsvHMCZSQsXDkB/XhqYoIHe/rhyGgx7x+yomoPnjyI6rV0OSHP0pv0SYRGuWH1W/MqRxZfZMWwuCgVBhHikOfscs72iq5pjSmPw7k8QG+U/R/bBWUhGKT7TTlNKn8t+GMjOwe1AnjabYOWO9FtM88HPRNovsrberovi1uZahkTK4McyO7dFaM77F2YqTD417ZDQWpt8HS7zax5fnA9C8TfTDMYfSYLS73oOfjEUgZrvcZWQAGSo/ZeonqZqgXM/JLJLziOLV0jx8QHqzV/BgNlkHaAlTTxzgGA718XRl8Qd4jDcxQ6VVbFF57QumjHrPMD1EeRI0/pJwjeWodMeRvSIw8chq+kJBBMro8ZHdK/N7i8ZZORxP0RIzL69QGzzLm9E6ICkSQR7YHTxrPNDZ5SLpPQIoyZmSTa8DLlt1AydScTS0MRqWLBjmZzdmqcife5exZqI7ZkwyN/LbUNKHo5kjvrXsZkg5Lntf1fCoPG49OxPqY5S+Vgba1VIZDOCPlA9VcHiVxG2Z3PWaDlHSkj+zGxUE9Klt7wDEUnoHWY6aXiJqunf1ybh+3kFq6kTSAPxKGRXp1MTYhS4NEH40o07b4XpS3OPuBlJdQnqCPTnwkQo+5AB638iCNg+UVDRC6lcTqPqFtW2OIpucokd6SoeldsqYKZeSB2tIkPqp7xfthaUdTc6c6EDfqPu6tPZGQHp/ZAmCUVzIuppFevkxUbI9Sc/fAsXxGQaBlhTbq5gkyeHuwTXwDst001eMgkscrCVeGqNk9QmVBjkPIs2u8Rwt1nUSGnJGJqH8l9paE6MfTxE5YX9aaKqXIx/icXrSfbUbXcK8O92J8hnYJPm7D2ZZ2wJxGhW74TrdgyM2WCgP1KZY/IGqPpWKn8bDwDqIo3ITs3xG1YaoRi13/FA9XqMLgnDIS+H39C7U4Lo5Ts69q2iNvRH0Uv6ebpTuEF0yDcBTCY3nGi8fJaxDHiMCUFg0Z2Zp7Ra14AzzOYw7s0xpUeqxmItvUhkK6nxU/kaYVBeJDrfOPoNaHp/aIyscuzPyOEW5O1UhaqN8+xNQdI9+sLgLrGck8ou4G8jzof9mkWBH8LGJFDiwURkVD19smKnLZrbW2PNz+XhMqyRvbGUeTqCgfmw6I567LsPmMbN+2nc9h24wNKCeD+JEOixnlQTrvo1Deb5neC/8uKY/Pt9c8ThXBCtlcvF3H1Z93dK+njN/KPkp6x4jA9J3EQc3YnfC9oncJ2Q9eJb3SMzqIkEZuylodbx0YCzQwNGj6UPh3jCo14crQk49BfKeC39sA5P3ukr95HOG/ec5virqWKqfmN6WInr1VJqRzJM4xyoOtvNieH6U30JytuihFZZoqGQl9pqwuxTAMwzCxIyvIwttOeGWLDfM1TVAN0U9/1MxjxemxG2gvl0ksIRd5kNhr+oMCW6uBncitSclJMrzP/E2JDvWu9V+esGFmGIZhmCQiAfOYGYZhGIZJFGyYGYZhGCaJYMPMMAzDMEkEG2aGYRiGSSLYMDNMknDrdf+An183X+/1EyVP4F+rn8AavTsk8TyK/5h2p95hmOQjjOyjghYZGevJRdonPYbsoxKqyB89CtnZuchOuYTOi45lOUmXeezooPOGPDRJ/4ufxspl5VjkaYxedpGmh3xxGpoMKTUTmubwteql8rorp14JkpobWtC0iiXIDiXTRvl/e1by5Y8wFt/PP4OffvAS+nWij2cFqgqAYwdrUKeD+pcv4evVazE20v2owlD5eVTNWYPlqRfx21Mf6AP9QM/rSPc+hP+Zfg4vtuv1QCUU16+iWsShas7NSIsqj6isVeNueu8WjFIymvpIeMKUUQG/z0ObMB4zrYVdiNQLjfAFrbqZgcy0bpwloYrTLejK8CInVR+SZCDHMwJd3S5raA9ltHoTLZGZOBahUqo66WXveI7wNcad+MdpXtQe2YjXdEi/Ub8BX9m0AS/o3aRBxutePH2kSwf0L/9+5BWcve5P8LV0HSBYMH8BCk//Xsbjd6cLMD2qpRZp9Sq9DKYO6Tv8Pg91oprHTF5z9qVmV7EKOk4G3NJutn5/Hl6MQhiRi0GLqA1v8MLXOgtlcsGH4InoVCOuxlb7QgiOJe/UMovByzYStkUUyJsmtSXbsoMC2/WMRSYofEYbavNE/OR19TF5nVxR4y9AUXYTag/koqw0K4rlHu0T/wO/D5cPjnRFtUCA4xxz6byg5S2N9DoXo7Du5ZYP8kcDCDWtjj6CPz3yog5QrFn6HKY33ovvygSSNzcV75NR9X4dP5gLHM25HrMz6VgTfuc3tvS7T8FaZ6TnyCb85Zsvi/9IZKM6xO8J85iGDNSr/ybi8BTyO1oxe5oqR4HrCcjLXajLV9e7ePrF72K/3HFez3k/dxbMfwqfw4uBe0jsaWrcp/MkhnwgbHEXUNfBn+FX+MLJN1UApafwA5HuUyL+dwKvBdY6X77uIYxraRPvg0pv0CImod7BkO+zy0IwZvl3e5/DvWffKYZPv6/+Y6fifZ/t75KZ1nD5YF+cZBAuajOARGzKJoan5SL1SqdLk7TwnoV3fLmjE71k4lO9GCu86Za2HmBkFtIxFJuyC7Gwcj4KGjbjGz/+DWouT8P9K4pszVyeWQswB0fsTdnHD6Lm1d16u4KFX6Smrtfw691iv3EUFk35CL/425/jeXFcnUcvZDXuLh2D1NQxmE/NXsvmYUzjfhz00EuZhlcf+yk20vUuz8VD9+g4FM3FyrJxaN78Q/zghd1o8FRg1awz2HFmHJYsnIKenZvRMPYWlA17AxsbvFiYKY65NrnTS7wK6TufwN/9wor3Z1BCcfCFyYfFVbg/6208+v3nVXqjaqprw0HKC51HDfm3oZriLeK2fN16lDbp+4g4TF82CudkM6HIo0dmoOkZldaay5OwcvR5dT+3fIi2e8EGGaNv4sEbqRnU2iox6dRL2C9ehXDcX3gPRpz7IX7n+N2syWswun0LdslCcyMq5njRQs2rGRW4vfR6XDlwL/7Xji1IG/15lI9Wzb8L5n8ZN7X8Cn/+23/Aywe3GE3CH2D/+1tEmBfzrOvoIwvmP4rb8Tq+8tL/xsunZmB5SS92vPSP8visyWtx85hGPP2rR/CUOHb7TTOQReeSUZx/Ac9SuLjP2ez78OD0fLz84R+EMf8m5p3bpOMQfL9wFEy4Q7wX7xvxpny9A2k6rXS9isovYy7lK9zzYc3Sr2LGaR2HnptRldeIZ199GmbD9YnhZbg334vTZ95S3Qe+kZg07w7xDItx9lW7AEnxjUtRMeEkNsr37wrmVC/RZVz/wDMNS2ZClE+jKTvk+3wQ299S+9OXDcde6/2U5T/M++yL8J4tm42C5i2q/ItvReWKaWgSGT4n5veZjK/5LjWi4I61WJKyG/uOh8uHRaiuzgikx6WJnomOPg7+cuoxqybs9tZ2GPLMQ5Qm7LZq1FJFJQr1JKopk1KV3FyWnrNhNKOR9yibvrRH6hQhd8ahsdbvwde/8JNA7V9cR6nwCO82KsUVUkRqQp2/Bk4L/JsKRC75EKceM3kbKn+U/J6CFvI37mNCknhGWoNwy4eYSYS6VAwID7VGx/tER6D5d39rK9KnVeNfl35Jh/Sdxne1J9zyEc7JEGHMJ09Ceub1eFBLXD44zXKPv4Tp48WzsHm8fWECcjOb8L7/+f0b3j+didxRetclH6Kipx2BM5SXP6XpXTRCXZ+89x/MX6WPCzvr1+t1lnEXEvk+x/KekZiM5W3H/D4rKU6pBCYh/Wm7Ml3ofGiCj+Q6+0ltaajRB8McQo85NV0U6RHIGVuI8eMLpcrUiJx8jPfmIEX9YmhS4oVH/+uOqBHHqYV8zWDmg5R7FOmMRY958b2oFAbY6ntLbD99X6EPex/0mBOF7qv9SuNUFYcoDDQZc4z/lPr97dfj3L7omp2padhWEXn13/SRqw8ZaVlBoTQtzMOh16xmdoP0HGT2NKt+fe88TMG7+OWb38V39zWhcKGqbJxrDVXBUPrO4RkC77MtH5QG8qOPbQVWU0WEDXRfiNswh9Rjvij25YAwtZ1t70VvezNOtwxmD5qan0RBDKPHLKXPTO81DCG1kC2i8botpEdabGjfiut1tPXDx0HVlElKTiK8hHKSoTPbDDUh80Ea6Bj0mP1poAEygf4sMw7L1xneiS0fxLOyydYlkvg95n8/dxKTR4eevjM6T3lsa5ba+0sjQgb6t++iJ2cMFuggN9YUFsh+Wyveqk87PPsbPgSmLQkx7eoU2roCA6dijncQ9utRv3L5+C60ndf7IVkF6vo+9Nvwz+HWDC+6urU2OpGZJ0yNQOSdHIRmeOM2pDa26b26E/Z9Ri7GRW28on/P+sYJnGnNUhrUEvWeWemwETIflIHui2430w96zNyEbeHUg1XNSPYBEkqHVA3GCKeFLBAGLCY9Zqf2rXixI2mnxoeI95bDQTrNgabjaPJBpSdixWXnLtTevFZr39Jglk7tgdvz7niNMPTCGEts+SbyoKYJRTPUoaTBdwQN0xbha+kv4u+NfuYX3nkX5bcLr094fj1H3kXj+IhumjCEz+G28XpHQAZXeYr2wVCFwpO8TQ/YeqGxSXiV5FnqgwL/ACs3Wr6LXx55SjZl36aD1DmigvLuEv/1Gvf9XsR7qv6FO9RsHGgOV2n2X++1efjB7YH4Ubg0tK6tES9jX9OdeJDO0SHCygpDbRroO3HHdcCRt/XAL2d6RN4car8eD975dUDkERFZGxuqbOqBXGHfZ+zBtgNlWG/pAEcc/BjpPUscTm1z+a0xjG80+SDf9SgqLkxoWF2qXyAvuhh1Q35UIudD1NDI7MJ2/OjtAZgyZYOa4O0jkKWRzN6fVE3TsWGMYNchVGEp7wiMyr5/2r9gafezgRHZEaCxDTPfizSaefDD+TAwsGHuFwaZQXLWhg3Ce+6x50PIqSSSwT/9Imj6zgBh91YF2pMO6pO9hnC2HFjTvyQu09PCMbgMEr2XLoPRInjubJgHBjbMDMMwDJNE8FrZDMMwDJNEsGFmGIZhmCSCDTPDMAzDJBFsmBmGYRgmiWDDzDAMwzBJRMRR2dYiI7SCl6kSRXrMtOSmpNtYAYx0mAOrklyVhUf+5ts1uKuQpvIsweJ/GalDGYZhGCb5CWOY1VrYKZ2NuJjmlH3MQI53OLqkwRX/j/cCPi37SIY5rce+VOfV4JZm7PxSD7Z/YTK+pYMYhmEYJtkJ05TdKwxvQGPZTjfa/V5wNy5eZRscktfT/Uo4dsrx+a9/Hf/zjqhXnWYYhmGYASMBfcwZSM3oxeVLepfIEF7zeKUwlZOqwwacdHzU0Y4Jt+hdhmEYhrkGiGrlL+pntjdlW6jm7vQLoY4JUnIwemwGekj44qqoW3yMjT/agYWtC1H2uLmAPMMwDMMkJ33wmEPoMTu53IOej/X/Aw4Z5Tpg8wo2ygzDMMw1Q9yGOaQes5PUHOSM7MWlq+It92BMdg5Ova53/ag+5v/9QLneZxiGYZjkIaxhpiZs6iem2U8jcvLF//nITKEDWo/Z6Ese780BHaJpVP4wD+A73YKQ48euGifR2in+FEwRJpphGIZhkouwhvliWyNOnzY33Vd8UXjKtnCx6VHal7uajfCraJRv6cFo/a+d4zjQICxz01Hs1iEMwzAMkywkYFR28kELjNR+6SBwoMAxh1k1Y987+Tiee4bNMsMwDJN8sB4zwzAMwyQRg9JjZhiGYZhrE+D/A1SlwB21sXxjAAAAAElFTkSuQmCC;" vertex="1" parent="1">
          <mxGeometry x="-550" y="501" width="486" height="159" as="geometry" />
        </mxCell>
        <mxCell id="vkecRQ2V3aNr8U5r4s_Q-70" value="........" style="rounded=0;whiteSpace=wrap;html=1;fontColor=#000000;labelBackgroundColor=default;" vertex="1" parent="1">
          <mxGeometry x="-50" y="460" width="120" height="40" as="geometry" />
        </mxCell>
      </root>
    </mxGraphModel>
  </diagram>
  <diagram id="WmCMP1MNif5dXpLa2aD4" name="SBI Flow">
    <mxGraphModel dx="2906" dy="1145" grid="1" gridSize="10" guides="1" tooltips="1" connect="1" arrows="1" fold="1" page="1" pageScale="1" pageWidth="827" pageHeight="1169" math="0" shadow="0">
      <root>
        <mxCell id="0" />
        <mxCell id="1" parent="0" />
      </root>
    </mxGraphModel>
  </diagram>
</mxfile>
